<?xml version="1.0" encoding="utf-8"?>
<!DOCTYPE svg PUBLIC "-//W3C//DTD SVG 1.1//EN" "http://www.w3.org/Graphics/SVG/1.1/DTD/svg11.dtd">
<svg version="1.1" xmlns="http://www.w3.org/2000/svg" xmlns:xlink="http://www.w3.org/1999/xlink" x="0px" y="0px" viewBox="0 0 1000 1000" enable-background="new 0 0 1000 1000" xml:space="preserve">
<metadata> Svg Vector Icons : http://www.onlinewebfonts.com/icon </metadata>
<g><path fill="#999" d="M977.2,915.3L761.7,699.9c59.2-72.8,94.6-165.6,94.6-266.7C856.4,199.5,666.9,10,433.2,10C199.5,10,10,199.5,10,433.2c0,233.7,189.5,423.2,423.2,423.2c101.1,0,193.9-35.5,266.7-94.6l215.5,215.5c17.1,17.1,44.8,17.1,61.8,0C994.3,960.1,994.3,932.4,977.2,915.3z M99.1,433.2c0-184.5,149.6-334.1,334.1-334.1c184.5,0,334.1,149.6,334.1,334.1c0,87.9-33.9,167.8-89.4,227.4c-3.5,1.9-6.9,4.4-9.8,7.4c-3,3-5.5,6.3-7.4,9.8C601,733.3,521,767.3,433.2,767.3C248.7,767.3,99.1,617.7,99.1,433.2z"/></g>
</svg>